<svg width="80" height="80" viewBox="0 0 80 80" fill="none" xmlns="http://www.w3.org/2000/svg">
<path d="M44.5157 45.4317C44.8783 43.1178 43.3029 42.1047 42.4276 41.5043C41.1773 40.6663 40.252 39.5782 41.3523 38.0773C41.9775 37.1642 42.9778 36.4638 44.1406 36.1511C45.3035 35.8385 46.6163 35.926 47.7167 36.4513C48.2918 36.7265 48.6794 37.0142 49.3421 37.6395C49.6672 37.9022 49.9173 38.2149 50.2049 38.5151C50.505 38.8027 50.7175 39.1529 50.9676 39.4781C51.9054 40.8164 52.6056 42.3548 52.8681 44.0058C53.1307 45.6568 53.0182 47.3828 52.493 49.0213C51.9679 50.6598 50.9801 52.1857 49.6797 53.4615C48.3793 54.7497 46.7539 55.7503 44.9159 56.3132C43.0903 56.9135 41.0772 57.1011 39.1267 56.801C37.1636 56.5383 35.2881 55.7753 33.6876 54.6122C31.9996 53.3364 30.3742 51.6979 29.1738 49.8593C26.7231 46.1821 25.7228 41.5043 26.6481 37.0517C27.5359 32.599 30.4117 28.4465 34.4628 25.7574C35.013 25.3197 35.6882 25.032 36.3259 24.6443C36.9761 24.2941 37.6888 24.0189 38.389 23.7062C39.8519 23.2184 41.3898 22.7181 43.0403 22.543C43.853 22.3804 44.7033 22.4054 45.566 22.3429C45.9912 22.3429 46.4288 22.3804 46.8539 22.3804L47.5041 22.4054L48.1543 22.493C49.9173 22.6306 51.6678 23.1434 53.3808 23.7688C55.1063 24.4191 56.7067 25.3947 58.2697 26.5329C59.8326 27.7962 61.3706 29.172 62.6459 30.7979C62.971 31.1982 63.2961 31.6109 63.6212 32.0112C63.8963 32.4489 64.1839 32.8867 64.4715 33.3245C65.0966 34.175 65.4843 35.1631 65.9969 36.1011C66.8346 38.0523 67.5599 40.091 67.8599 42.2548C68.6352 46.5574 68.0225 51.1601 66.297 55.4126L65.5343 56.9761C65.4092 57.2387 65.2967 57.5014 65.1467 57.7515L64.684 58.4895C64.3714 58.9773 64.0714 59.4901 63.7463 59.9779L62.6459 61.3787C62.4584 61.6163 62.2958 61.854 62.0958 62.0791L61.4706 62.7295C61.0455 63.1548 60.6454 63.605 60.2203 64.0303C59.27 64.7932 58.4197 65.6688 57.3819 66.3191C53.4183 69.1959 48.5169 70.9469 43.4404 71.4722C40.8897 71.6973 38.3265 71.5973 35.7757 71.2221C33.2625 70.7343 30.7618 70.0589 28.4361 68.9707C26.1229 67.845 23.9348 66.5943 21.9467 64.8307C21.4466 64.4055 20.9215 64.0053 20.4338 63.5675L19.0584 62.1667C18.0831 61.2786 17.3454 60.2155 16.5077 59.2149C13.2818 55.15 11.2687 50.2596 10.4059 45.2566C9.91829 42.7551 9.91829 40.2036 10.0308 37.6896C10.0683 37.0642 10.1934 36.4388 10.2684 35.8134C10.3684 35.1881 10.3934 34.5627 10.556 33.9498L11.0061 32.1237L11.2187 31.2107C11.3062 30.9105 11.4312 30.6228 11.5313 30.3227C13.1067 25.5698 15.795 21.2548 19.2085 17.7026C22.6094 14.138 26.7231 11.3614 31.0994 9.48524C35.4756 7.59661 40.127 6.58351 44.6283 6.37088C49.1421 6.14574 53.5183 6.72109 57.507 7.87177C61.133 8.9224 64.484 10.3983 67.3723 12.2494C68.0225 12.6621 68.8352 12.7872 69.5354 12.462C70.0231 12.2369 70.4732 11.8992 70.8608 11.4114C71.1734 11.0237 71.3735 10.6109 71.4735 10.2107C71.6735 9.36016 71.2734 8.47213 70.5607 7.95933C67.3598 5.63294 63.5462 3.70679 59.3575 2.30595C54.7937 0.780043 49.7297 -0.0704644 44.4407 0.00458034C39.1642 0.0796251 33.6626 1.09273 28.3861 3.19398C23.1221 5.28273 18.0831 8.48464 13.8694 12.6997C9.65571 16.8897 6.22973 22.1053 4.17914 27.9462C4.0416 28.309 3.90406 28.6717 3.77903 29.0344L3.47894 30.1601L2.89127 32.4114C2.69121 33.1619 2.62869 33.9498 2.49116 34.7128C2.36612 35.4757 2.20357 36.2512 2.14105 37.0267C1.92849 40.1535 1.90349 43.3304 2.44114 46.4573C3.40392 52.711 5.86713 58.8647 9.79325 64.0178C10.806 65.281 11.7438 66.6068 12.9192 67.7325L14.6071 69.4835C15.1948 70.0464 15.8325 70.5467 16.4452 71.072C17.0703 71.5848 17.6705 72.1351 18.3332 72.6229L20.3838 74.0362C21.059 74.5365 21.8092 74.8993 22.5344 75.312C23.2721 75.6997 23.9723 76.1625 24.7476 76.4627C27.7609 77.9011 30.9993 78.8391 34.2628 79.4645C37.5512 79.9898 40.8897 80.1399 44.1906 79.8647C50.7675 79.2393 57.1819 77.0005 62.4459 73.2358C63.8213 72.3727 64.9841 71.2471 66.2095 70.2215C66.7846 69.6711 67.3223 69.0833 67.8849 68.5079L68.7102 67.6449C68.9728 67.3573 69.2103 67.0321 69.4604 66.7194L70.9233 64.8558C71.3735 64.2054 71.7736 63.53 72.1987 62.8671L72.8239 61.8665C73.0364 61.4788 73.224 61.0785 73.424 60.6908C73.6991 60.1279 74.1743 59.1273 74.4493 58.5645C76.7875 52.8736 77.5752 46.6699 76.575 40.8915C76.1623 37.9647 75.2121 35.1756 74.0617 32.549C73.399 31.2732 72.8364 29.96 72.0236 28.7968C71.636 28.1964 71.2609 27.6085 70.8733 27.0207C70.4357 26.4704 70.0106 25.92 69.5729 25.3822C67.8474 23.1934 65.8219 21.3548 63.7338 19.6788C61.5331 18.0403 59.1574 16.6145 56.6567 15.6764C54.1685 14.7384 51.6303 14.0505 49.1046 13.8128L48.1668 13.7003L47.229 13.6627C46.6038 13.6377 45.9912 13.6127 45.3785 13.6127C44.1531 13.6877 42.9403 13.6877 41.7649 13.9004C39.3893 14.163 37.1636 14.8384 35.063 15.5764C34.0377 16.0141 33.0249 16.4269 32.0747 16.9272C31.1494 17.465 30.1866 17.9278 29.3614 18.5406C26.4105 20.5168 23.8723 23.0183 21.9092 25.8825C19.9337 28.7467 18.5708 31.9987 17.9081 35.3507C16.5577 42.0672 18.1832 49.0839 21.8967 54.4371C23.7598 57.1387 26.0229 59.39 28.6737 61.2786C31.4745 63.2173 34.7254 64.418 38.0014 64.7682C41.2773 65.1684 44.5657 64.7682 47.5416 63.6926C50.5425 62.6545 53.2182 60.8909 55.2938 58.6646C57.3694 56.4633 58.9199 53.8117 59.6826 51.01C60.4578 48.1958 60.4953 45.2941 59.9202 42.5925C59.3575 39.8909 58.0821 37.4269 56.4567 35.3882C56.0315 34.8879 55.6439 34.3751 55.1688 33.9373C54.7062 33.4871 54.2685 33.0243 53.7559 32.6491C52.8806 31.8861 51.5428 30.9856 50.2174 30.4978C47.5291 29.4597 44.6158 29.4972 42.1275 30.3727C39.6268 31.2482 37.5387 32.9868 36.3384 35.113C35.1005 37.2393 34.7504 39.7158 35.2256 41.8921C35.5382 43.4305 36.2384 44.8063 37.1386 45.9445C38.0389 47.0702 39.6768 48.0207 41.6524 47.9582C42.5402 48.0082 44.2031 47.4579 44.5157 45.4317Z" fill="black"/>
</svg>
